<svg width="195" height="125" viewBox="0 0 195 125" fill="none" xmlns="http://www.w3.org/2000/svg">
<path d="M106.303 24.2714C96.5776 34.5655 96.3458 51.2059 106 61.5C113.5 48.5 117.5 40 132.452 31.6243C122.584 40.4478 117 52 113 66C122.263 70.638 133.913 69.7087 141.572 61.6016C153.969 48.4795 156 9 156 9C156 9 118.701 11.1493 106.303 24.2714Z" fill="#287562"/>
<path d="M88.6969 14.9396C98.4225 25.01 98.4225 41.3144 88.7681 51.3848C83.5312 38.8429 74.1975 28.3668 62.5481 22.1327C72.4162 30.7645 79.3275 42.8268 81.75 56.5122C72.4875 61.0494 61.0875 59.3895 53.4281 51.4586C41.0306 38.6216 39 0 39 0C39 0 76.2994 2.10261 88.6969 14.9396Z" fill="#4E895F"/>
<path d="M6.19727 88.3945V111.421C6.19727 112.027 6.06738 112.479 5.80762 112.775C5.49837 113.146 5.05924 113.474 4.49023 113.759C3.93359 114.043 3.47591 114.186 3.11719 114.186C2.68424 114.186 2.46777 113.92 2.46777 113.388V90.3613C2.46777 89.8418 2.59766 89.4274 2.85742 89.1182C3.17904 88.7347 3.61816 88.3883 4.1748 88.0791C4.73145 87.7575 5.18913 87.5967 5.54785 87.5967C5.98079 87.5967 6.19727 87.8626 6.19727 88.3945ZM16.1797 113.425L7.64453 101.234C7.38477 100.876 7.25488 100.548 7.25488 100.251C7.25488 99.818 7.47135 99.3232 7.9043 98.7666L14.8994 89.4893C15.4808 88.71 16.0065 88.2028 16.4766 87.9678C16.959 87.7204 17.6641 87.5967 18.5918 87.5967C19.2721 87.5967 19.6123 87.7822 19.6123 88.1533C19.6123 88.4255 19.4329 88.7842 19.0742 89.2295L11.6709 98.5811C11.3122 99.0387 11.1328 99.4036 11.1328 99.6758C11.1328 99.9355 11.3184 100.313 11.6895 100.808L19.0742 110.66C19.334 111.019 19.4639 111.347 19.4639 111.644C19.4639 111.99 19.3587 112.342 19.1484 112.701C18.5299 113.691 17.8743 114.186 17.1816 114.186C16.8724 114.186 16.5384 113.932 16.1797 113.425ZM27.1641 96.0576C28.7721 94.9691 30.3184 94.4248 31.8027 94.4248C33.819 94.4248 35.291 95.0495 36.2188 96.2988C37.1465 97.5358 37.6104 99.5459 37.6104 102.329V111.792C37.6104 112.46 37.3011 113.029 36.6826 113.499C36.0765 113.957 35.4889 114.186 34.9199 114.186C34.487 114.186 34.2705 113.92 34.2705 113.388C34.2829 107.339 34.2767 104.024 34.252 103.442C34.2396 102.849 34.1901 102.137 34.1035 101.309C34.0293 100.467 33.9056 99.849 33.7324 99.4531C33.5592 99.0573 33.318 98.6491 33.0088 98.2285C32.7119 97.7956 32.3223 97.4987 31.8398 97.3379C31.3574 97.1771 30.776 97.0967 30.0957 97.0967C28.5866 97.0967 26.6136 98.043 24.1768 99.9355C23.7809 100.245 23.4717 100.399 23.249 100.399C23.0016 100.399 22.8779 100.214 22.8779 99.8428V87.8193C22.8779 87.1637 23.1872 86.6133 23.8057 86.168C24.4365 85.7227 25.0241 85.5 25.5684 85.5C26.0013 85.5 26.2178 85.766 26.2178 86.2979L26.1436 95.5752C26.1436 96.1071 26.2673 96.373 26.5146 96.373C26.6631 96.373 26.8796 96.2679 27.1641 96.0576ZM22.8779 113.388V103.442C22.8779 102.75 23.0449 102.218 23.3789 101.847C23.7005 101.476 24.0964 101.135 24.5664 100.826C25.0365 100.517 25.3952 100.362 25.6426 100.362C26.026 100.362 26.2178 100.628 26.2178 101.16V111.885C26.2178 112.553 25.9023 113.103 25.2715 113.536C24.6406 113.969 24.0592 114.186 23.5273 114.186C23.0944 114.186 22.8779 113.92 22.8779 113.388ZM47.6855 114.575C46.6465 114.575 45.7497 114.439 44.9951 114.167C44.2529 113.907 43.6468 113.474 43.1768 112.868C42.7067 112.25 42.3604 111.452 42.1377 110.475C41.915 109.497 41.8037 108.291 41.8037 106.856V96.7812C41.8037 96.4473 41.8903 96.138 42.0635 95.8535C42.249 95.5566 42.4717 95.3031 42.7314 95.0928C43.0036 94.8825 43.2943 94.7217 43.6035 94.6104C43.9251 94.4867 44.222 94.4248 44.4941 94.4248C44.9271 94.4248 45.1436 94.6908 45.1436 95.2227V106.522L45.2178 107.951C45.2673 108.656 45.3662 109.262 45.5146 109.77C45.6631 110.264 45.8857 110.673 46.1826 110.994C46.4795 111.303 46.8506 111.532 47.2959 111.681C47.7536 111.829 48.304 111.903 48.9473 111.903C49.974 111.903 50.9079 111.662 51.749 111.18C51.984 111.044 52.1387 110.976 52.2129 110.976C52.3242 110.976 52.3984 111.019 52.4355 111.105C52.485 111.192 52.5098 111.378 52.5098 111.662C52.5098 112.182 52.3304 112.627 51.9717 112.998C51.613 113.357 51.18 113.654 50.6729 113.889C50.1657 114.124 49.6338 114.297 49.0771 114.408C48.5329 114.52 48.069 114.575 47.6855 114.575ZM56.7959 95.2227V111.848C56.7959 112.516 56.4867 113.072 55.8682 113.518C55.262 113.963 54.6745 114.186 54.1055 114.186C53.6725 114.186 53.4561 113.92 53.4561 113.388V96.7627C53.4561 96.1195 53.7653 95.569 54.3838 95.1113C55.0023 94.6536 55.5898 94.4248 56.1465 94.4248C56.5794 94.4248 56.7959 94.6908 56.7959 95.2227ZM71.3057 109.788C71.3057 108.465 70.9408 107.518 70.2109 106.949C69.4935 106.38 68.4544 106.034 67.0938 105.91C65.8939 105.799 64.861 105.595 63.9951 105.298C63.1292 105.001 62.4551 104.642 61.9727 104.222C61.4902 103.789 61.1377 103.331 60.915 102.849C60.7048 102.354 60.5996 101.822 60.5996 101.253C60.5996 100.672 60.8965 100.158 61.4902 99.7129C62.084 99.2552 62.585 99.0264 62.9932 99.0264C63.2777 99.0264 63.4694 99.2181 63.5684 99.6016C63.6673 100.022 63.7663 100.375 63.8652 100.659C63.9766 100.944 64.125 101.197 64.3105 101.42C64.5085 101.63 64.7002 101.803 64.8857 101.939C65.0837 102.063 65.3805 102.181 65.7764 102.292C66.1846 102.391 66.568 102.471 66.9268 102.533C67.2979 102.595 67.8236 102.669 68.5039 102.756C69.5801 102.892 70.4954 103.139 71.25 103.498C72.0046 103.844 72.5736 104.277 72.957 104.797C73.3405 105.316 73.6126 105.854 73.7734 106.411C73.9342 106.968 74.0146 107.599 74.0146 108.304C74.0146 109.095 73.8786 109.856 73.6064 110.586C73.3467 111.303 73.0251 111.891 72.6416 112.349C72.2581 112.794 71.8685 113.153 71.4727 113.425C71.0768 113.685 70.7305 113.814 70.4336 113.814C70.2357 113.814 70.1367 113.722 70.1367 113.536C70.1367 113.462 70.2357 113.276 70.4336 112.979C71.015 112.039 71.3057 110.976 71.3057 109.788ZM72.5303 95.501C72.9137 95.7979 73.1055 96.0885 73.1055 96.373C73.1055 96.6823 72.8457 97.0658 72.3262 97.5234C71.819 97.9688 71.3551 98.1914 70.9346 98.1914C70.8109 98.1914 70.6995 98.179 70.6006 98.1543C70.5016 98.1172 70.3532 98.0615 70.1553 97.9873C69.9697 97.9007 69.8337 97.8451 69.7471 97.8203C68.5843 97.3379 67.5391 97.0967 66.6113 97.0967C64.8672 97.0967 63.3333 97.4987 62.0098 98.3027C61.9232 98.3522 61.7995 98.4264 61.6387 98.5254C61.4902 98.6243 61.3665 98.7048 61.2676 98.7666C61.181 98.8161 61.1068 98.8408 61.0449 98.8408C60.8717 98.8408 60.7852 98.7357 60.7852 98.5254C60.7852 98.2533 60.9769 97.876 61.3604 97.3936C62.9932 95.4144 65.2878 94.4248 68.2441 94.4248C69.0234 94.4248 69.8213 94.5176 70.6377 94.7031C71.4541 94.8887 72.085 95.1546 72.5303 95.501ZM64.125 110.957C64.5332 111.204 64.8115 111.371 64.96 111.458C65.1208 111.545 65.3867 111.644 65.7578 111.755C66.1413 111.854 66.5495 111.903 66.9824 111.903C67.5267 111.903 68.0648 111.823 68.5967 111.662C69.1286 111.501 69.4069 111.421 69.4316 111.421C69.7161 111.421 69.8584 111.569 69.8584 111.866C69.8584 112.064 69.7594 112.312 69.5615 112.608C69.3636 112.893 69.0853 113.19 68.7266 113.499C68.3678 113.796 67.873 114.049 67.2422 114.26C66.6237 114.47 65.9434 114.575 65.2012 114.575C64.1621 114.575 63.1663 114.334 62.2139 113.852C61.2614 113.369 60.7852 112.874 60.7852 112.367C60.7852 111.984 61.0387 111.594 61.5459 111.198C62.0654 110.79 62.5602 110.586 63.0303 110.586C63.3395 110.586 63.7044 110.71 64.125 110.957ZM82.1602 96.0576C83.7682 94.9691 85.3145 94.4248 86.7988 94.4248C88.8151 94.4248 90.2871 95.0495 91.2148 96.2988C92.1426 97.5358 92.6064 99.5459 92.6064 102.329V111.792C92.6064 112.46 92.2972 113.029 91.6787 113.499C91.0726 113.957 90.485 114.186 89.916 114.186C89.4831 114.186 89.2666 113.92 89.2666 113.388C89.279 107.339 89.2728 104.024 89.248 103.442C89.2357 102.849 89.1862 102.137 89.0996 101.309C89.0254 100.467 88.9017 99.849 88.7285 99.4531C88.5553 99.0573 88.3141 98.6491 88.0049 98.2285C87.708 97.7956 87.3184 97.4987 86.8359 97.3379C86.3535 97.1771 85.7721 97.0967 85.0918 97.0967C83.5827 97.0967 81.6097 98.043 79.1729 99.9355C78.777 100.245 78.4678 100.399 78.2451 100.399C77.9977 100.399 77.874 100.214 77.874 99.8428V87.8193C77.874 87.1637 78.1833 86.6133 78.8018 86.168C79.4326 85.7227 80.0202 85.5 80.5645 85.5C80.9974 85.5 81.2139 85.766 81.2139 86.2979L81.1396 95.5752C81.1396 96.1071 81.2633 96.373 81.5107 96.373C81.6592 96.373 81.8757 96.2679 82.1602 96.0576ZM77.874 113.388V103.442C77.874 102.75 78.041 102.218 78.375 101.847C78.6966 101.476 79.0924 101.135 79.5625 100.826C80.0326 100.517 80.3913 100.362 80.6387 100.362C81.0221 100.362 81.2139 100.628 81.2139 101.16V111.885C81.2139 112.553 80.8984 113.103 80.2676 113.536C79.6367 113.969 79.0553 114.186 78.5234 114.186C78.0905 114.186 77.874 113.92 77.874 113.388ZM100.325 95.2227V111.792C100.325 112.262 100.214 112.646 99.9912 112.942C99.6696 113.313 99.2861 113.617 98.8408 113.852C98.4079 114.074 98.0059 114.186 97.6348 114.186C97.2018 114.186 96.9854 113.92 96.9854 113.388V96.8184C96.9854 96.3483 97.0967 95.971 97.3193 95.6865C97.641 95.3154 98.0182 95.0124 98.4512 94.7773C98.8965 94.5423 99.3047 94.4248 99.6758 94.4248C100.109 94.4248 100.325 94.6908 100.325 95.2227ZM100.325 85.5557V88.2461C100.325 88.7161 100.214 89.0996 99.9912 89.3965C99.6696 89.7676 99.2861 90.0706 98.8408 90.3057C98.4079 90.5283 98.0059 90.6396 97.6348 90.6396C97.2018 90.6396 96.9854 90.3737 96.9854 89.8418V87.1514C96.9854 86.6689 97.0967 86.2917 97.3193 86.0195C97.641 85.6484 98.0182 85.3454 98.4512 85.1104C98.8965 84.8753 99.3047 84.7578 99.6758 84.7578C100.109 84.7578 100.325 85.0238 100.325 85.5557ZM112.571 99.2861C113.549 99.4717 114.421 99.7005 115.188 99.9727C115.967 100.245 116.622 100.535 117.154 100.845C117.686 101.142 118.144 101.488 118.527 101.884C118.911 102.28 119.208 102.663 119.418 103.034C119.641 103.405 119.814 103.832 119.938 104.314C120.061 104.797 120.142 105.242 120.179 105.65C120.216 106.046 120.234 106.51 120.234 107.042C120.234 108.032 120.049 108.978 119.678 109.881C119.307 110.784 118.843 111.532 118.286 112.126C117.742 112.707 117.173 113.171 116.579 113.518C115.985 113.864 115.447 114.037 114.965 114.037C114.705 114.037 114.575 113.913 114.575 113.666C114.575 113.505 114.674 113.326 114.872 113.128C115.503 112.522 115.967 111.786 116.264 110.92C116.561 110.054 116.709 109.269 116.709 108.563C116.709 108.143 116.703 107.815 116.69 107.58C116.678 107.345 116.635 107.023 116.561 106.615C116.499 106.207 116.4 105.879 116.264 105.632C116.14 105.372 115.948 105.081 115.688 104.76C115.429 104.426 115.113 104.154 114.742 103.943C114.371 103.721 113.895 103.517 113.313 103.331C112.744 103.133 112.089 102.979 111.347 102.867C110.407 102.731 109.559 102.552 108.805 102.329C108.062 102.094 107.444 101.847 106.949 101.587C106.467 101.327 106.046 101.024 105.688 100.678C105.341 100.331 105.075 100.01 104.89 99.7129C104.704 99.4036 104.562 99.0573 104.463 98.6738C104.364 98.2904 104.302 97.9749 104.277 97.7275C104.253 97.4678 104.24 97.1771 104.24 96.8555C104.24 96.4844 104.296 96.1318 104.407 95.7979C104.58 95.266 104.976 94.7588 105.595 94.2764C106.213 93.7939 106.751 93.5527 107.209 93.5527C107.432 93.5527 107.599 93.6022 107.71 93.7012C107.834 93.7878 107.896 93.9795 107.896 94.2764C107.896 95.2165 107.951 95.9587 108.062 96.5029C108.186 97.0472 108.44 97.5049 108.823 97.876C109.207 98.2471 109.671 98.5254 110.215 98.7109C110.759 98.8965 111.545 99.0882 112.571 99.2861ZM109.547 114.575C108.607 114.575 107.778 114.451 107.061 114.204C106.355 113.969 105.582 113.468 104.741 112.701C104.333 112.33 104.129 111.94 104.129 111.532C104.129 111.198 104.265 110.895 104.537 110.623C105.354 109.807 106.09 109.398 106.745 109.398C107.166 109.398 107.636 109.615 108.155 110.048C108.873 110.666 109.466 111.068 109.937 111.254C110.419 111.439 110.982 111.532 111.625 111.532C112.169 111.532 112.67 111.427 113.128 111.217C113.598 111.007 113.876 110.901 113.963 110.901C114.272 110.901 114.427 111.099 114.427 111.495C114.427 111.693 114.346 111.947 114.186 112.256C114.025 112.565 113.771 112.905 113.425 113.276C113.091 113.635 112.577 113.938 111.885 114.186C111.204 114.445 110.425 114.575 109.547 114.575ZM118.787 89.6006C118.787 90.083 118.465 90.5654 117.822 91.0479C117.191 91.5303 116.641 91.7715 116.171 91.7715C115.874 91.7715 115.472 91.6602 114.965 91.4375C114.458 91.2148 113.882 90.9922 113.239 90.7695C112.608 90.5469 111.99 90.4355 111.384 90.4355C110.345 90.4355 109.374 90.6335 108.471 91.0293C107.58 91.4128 106.628 92.0251 105.613 92.8662C104.945 93.4229 104.525 93.7012 104.352 93.7012C104.079 93.7012 103.943 93.5527 103.943 93.2559C103.943 93.0579 104.061 92.7549 104.296 92.3467C104.531 91.9385 104.754 91.6045 104.964 91.3447C107.141 88.71 110.029 87.3926 113.629 87.3926C114.309 87.3926 115.039 87.4792 115.818 87.6523C116.598 87.8132 117.284 88.0729 117.878 88.4316C118.484 88.778 118.787 89.1676 118.787 89.6006ZM128.176 96.0576C129.784 94.9691 131.33 94.4248 132.814 94.4248C134.831 94.4248 136.303 95.0495 137.23 96.2988C138.158 97.5358 138.622 99.5459 138.622 102.329V111.792C138.622 112.46 138.313 113.029 137.694 113.499C137.088 113.957 136.501 114.186 135.932 114.186C135.499 114.186 135.282 113.92 135.282 113.388C135.295 107.339 135.288 104.024 135.264 103.442C135.251 102.849 135.202 102.137 135.115 101.309C135.041 100.467 134.917 99.849 134.744 99.4531C134.571 99.0573 134.33 98.6491 134.021 98.2285C133.724 97.7956 133.334 97.4987 132.852 97.3379C132.369 97.1771 131.788 97.0967 131.107 97.0967C129.598 97.0967 127.625 98.043 125.188 99.9355C124.793 100.245 124.483 100.399 124.261 100.399C124.013 100.399 123.89 100.214 123.89 99.8428V87.8193C123.89 87.1637 124.199 86.6133 124.817 86.168C125.448 85.7227 126.036 85.5 126.58 85.5C127.013 85.5 127.229 85.766 127.229 86.2979L127.155 95.5752C127.155 96.1071 127.279 96.373 127.526 96.373C127.675 96.373 127.891 96.2679 128.176 96.0576ZM123.89 113.388V103.442C123.89 102.75 124.057 102.218 124.391 101.847C124.712 101.476 125.108 101.135 125.578 100.826C126.048 100.517 126.407 100.362 126.654 100.362C127.038 100.362 127.229 100.628 127.229 101.16V111.885C127.229 112.553 126.914 113.103 126.283 113.536C125.652 113.969 125.071 114.186 124.539 114.186C124.106 114.186 123.89 113.92 123.89 113.388ZM150.441 94.4248C153.262 94.4248 155.334 95.2598 156.657 96.9297C157.993 98.5872 158.661 101.036 158.661 104.277C158.661 105.279 158.531 106.355 158.271 107.506C158.024 108.644 157.684 109.658 157.251 110.549C156.781 111.489 156.206 112.287 155.525 112.942C154.845 113.598 154.295 113.926 153.874 113.926C153.614 113.926 153.484 113.808 153.484 113.573C153.484 113.499 153.528 113.4 153.614 113.276C153.701 113.153 153.818 112.967 153.967 112.72C154.115 112.46 154.245 112.163 154.356 111.829C154.864 110.444 155.117 108.483 155.117 105.947C155.117 104.549 155.018 103.337 154.82 102.311C154.635 101.271 154.319 100.35 153.874 99.5459C153.441 98.7419 152.835 98.1357 152.056 97.7275C151.276 97.307 150.324 97.0967 149.198 97.0967C147.64 97.0967 146.032 97.6657 144.374 98.8037C144.312 98.8532 144.219 98.9212 144.096 99.0078C143.972 99.082 143.873 99.1439 143.799 99.1934C143.737 99.2428 143.669 99.2861 143.595 99.3232C143.521 99.3604 143.459 99.3789 143.409 99.3789C143.236 99.3789 143.149 99.2738 143.149 99.0635C143.149 98.9274 143.217 98.7295 143.354 98.4697C143.502 98.21 143.626 98.0182 143.725 97.8945C145.531 95.5814 147.77 94.4248 150.441 94.4248ZM145.914 103.758C145.914 104.624 145.933 105.366 145.97 105.984C146.007 106.603 146.075 107.246 146.174 107.914C146.285 108.582 146.446 109.139 146.656 109.584C146.879 110.029 147.151 110.438 147.473 110.809C147.807 111.18 148.227 111.458 148.734 111.644C149.242 111.817 149.835 111.903 150.516 111.903C151.097 111.903 151.604 111.823 152.037 111.662C152.482 111.501 152.736 111.421 152.798 111.421C153.058 111.421 153.188 111.557 153.188 111.829C153.188 112.386 152.785 112.986 151.981 113.629C151.19 114.26 150.213 114.575 149.05 114.575C147.974 114.575 147.034 114.396 146.229 114.037C145.438 113.678 144.801 113.208 144.318 112.627C143.836 112.046 143.446 111.316 143.149 110.438C142.865 109.559 142.673 108.675 142.574 107.784C142.475 106.894 142.426 105.885 142.426 104.76C142.426 104.129 142.488 103.467 142.611 102.774C142.735 102.069 142.902 101.531 143.112 101.16C143.372 100.715 143.786 100.307 144.355 99.9355C144.937 99.5645 145.432 99.3789 145.84 99.3789C146.149 99.3789 146.304 99.5645 146.304 99.9355C146.304 99.9974 146.236 100.474 146.1 101.364C145.976 102.255 145.914 103.053 145.914 103.758ZM165.712 102.181C165.712 102.527 165.817 102.75 166.027 102.849C166.25 102.935 166.572 102.979 166.992 102.979C168.068 102.979 168.99 102.886 169.757 102.7C170.524 102.515 171.111 102.255 171.52 101.921C171.928 101.587 172.218 101.234 172.392 100.863C172.577 100.492 172.67 100.084 172.67 99.6387C172.67 98.8717 172.404 98.2594 171.872 97.8018C171.34 97.3317 170.487 97.0967 169.312 97.0967C167.468 97.0967 165.737 97.6781 164.116 98.8408C163.634 99.1995 163.331 99.3789 163.207 99.3789C162.997 99.3789 162.892 99.2614 162.892 99.0264C162.892 98.7171 163.071 98.3398 163.43 97.8945C164.098 97.041 164.858 96.3421 165.712 95.7979C166.565 95.2536 167.345 94.8887 168.05 94.7031C168.755 94.5176 169.454 94.4248 170.146 94.4248C171.037 94.4248 171.841 94.5176 172.559 94.7031C173.276 94.8887 173.913 95.1794 174.47 95.5752C175.026 95.9587 175.459 96.4906 175.769 97.1709C176.078 97.8389 176.232 98.6243 176.232 99.5273C176.232 101.457 175.311 102.948 173.468 103.999C171.637 105.038 169.132 105.558 165.953 105.558C165.062 105.558 164.054 105.508 162.929 105.409C162.372 105.372 162.094 105.1 162.094 104.593C162.094 103.22 162.292 102.193 162.688 101.513C163.083 100.82 163.597 100.288 164.228 99.917C164.846 99.5583 165.316 99.3789 165.638 99.3789C165.935 99.3789 166.083 99.5645 166.083 99.9355C166.083 100.084 166.021 100.449 165.897 101.03C165.774 101.599 165.712 101.983 165.712 102.181ZM162.242 107.357C162.242 106.714 162.539 106.393 163.133 106.393H164.729C165.05 106.393 165.273 106.454 165.396 106.578C165.533 106.702 165.638 106.974 165.712 107.395C166.194 110.4 167.84 111.903 170.647 111.903C171.353 111.903 172.014 111.817 172.633 111.644C173.251 111.47 173.728 111.279 174.062 111.068C174.408 110.858 174.723 110.666 175.008 110.493C175.305 110.32 175.521 110.233 175.657 110.233C175.942 110.233 176.084 110.388 176.084 110.697C176.084 110.957 175.942 111.291 175.657 111.699C175.373 112.107 174.965 112.534 174.433 112.979C173.913 113.412 173.189 113.784 172.262 114.093C171.346 114.414 170.351 114.575 169.274 114.575C167.048 114.575 165.316 113.907 164.079 112.571C162.854 111.223 162.242 109.485 162.242 107.357ZM189.907 109.788C189.907 108.465 189.542 107.518 188.812 106.949C188.095 106.38 187.056 106.034 185.695 105.91C184.495 105.799 183.463 105.595 182.597 105.298C181.731 105.001 181.057 104.642 180.574 104.222C180.092 103.789 179.739 103.331 179.517 102.849C179.306 102.354 179.201 101.822 179.201 101.253C179.201 100.672 179.498 100.158 180.092 99.7129C180.686 99.2552 181.187 99.0264 181.595 99.0264C181.879 99.0264 182.071 99.2181 182.17 99.6016C182.269 100.022 182.368 100.375 182.467 100.659C182.578 100.944 182.727 101.197 182.912 101.42C183.11 101.63 183.302 101.803 183.487 101.939C183.685 102.063 183.982 102.181 184.378 102.292C184.786 102.391 185.17 102.471 185.528 102.533C185.899 102.595 186.425 102.669 187.105 102.756C188.182 102.892 189.097 103.139 189.852 103.498C190.606 103.844 191.175 104.277 191.559 104.797C191.942 105.316 192.214 105.854 192.375 106.411C192.536 106.968 192.616 107.599 192.616 108.304C192.616 109.095 192.48 109.856 192.208 110.586C191.948 111.303 191.627 111.891 191.243 112.349C190.86 112.794 190.47 113.153 190.074 113.425C189.678 113.685 189.332 113.814 189.035 113.814C188.837 113.814 188.738 113.722 188.738 113.536C188.738 113.462 188.837 113.276 189.035 112.979C189.617 112.039 189.907 110.976 189.907 109.788ZM191.132 95.501C191.515 95.7979 191.707 96.0885 191.707 96.373C191.707 96.6823 191.447 97.0658 190.928 97.5234C190.421 97.9688 189.957 98.1914 189.536 98.1914C189.412 98.1914 189.301 98.179 189.202 98.1543C189.103 98.1172 188.955 98.0615 188.757 97.9873C188.571 97.9007 188.435 97.8451 188.349 97.8203C187.186 97.3379 186.141 97.0967 185.213 97.0967C183.469 97.0967 181.935 97.4987 180.611 98.3027C180.525 98.3522 180.401 98.4264 180.24 98.5254C180.092 98.6243 179.968 98.7048 179.869 98.7666C179.783 98.8161 179.708 98.8408 179.646 98.8408C179.473 98.8408 179.387 98.7357 179.387 98.5254C179.387 98.2533 179.578 97.876 179.962 97.3936C181.595 95.4144 183.889 94.4248 186.846 94.4248C187.625 94.4248 188.423 94.5176 189.239 94.7031C190.056 94.8887 190.687 95.1546 191.132 95.501ZM182.727 110.957C183.135 111.204 183.413 111.371 183.562 111.458C183.722 111.545 183.988 111.644 184.359 111.755C184.743 111.854 185.151 111.903 185.584 111.903C186.128 111.903 186.666 111.823 187.198 111.662C187.73 111.501 188.008 111.421 188.033 111.421C188.318 111.421 188.46 111.569 188.46 111.866C188.46 112.064 188.361 112.312 188.163 112.608C187.965 112.893 187.687 113.19 187.328 113.499C186.969 113.796 186.475 114.049 185.844 114.26C185.225 114.47 184.545 114.575 183.803 114.575C182.764 114.575 181.768 114.334 180.815 113.852C179.863 113.369 179.387 112.874 179.387 112.367C179.387 111.984 179.64 111.594 180.147 111.198C180.667 110.79 181.162 110.586 181.632 110.586C181.941 110.586 182.306 110.71 182.727 110.957Z" fill="#287562"/>
<path d="M100 69C100 71.5 96.5 74 94.5 72.5C92.0147 72.5 83.9998 54.4999 82.4998 50.4999C79.5774 41 69.5 26.5 75 33.5C77.6001 36.1262 85.5 51 100 69Z" fill="#7A7A7A"/>
<path d="M92.9999 79.9997C92.9999 83.0373 96.5146 82.9997 98.9999 82.9997C101.485 82.9997 109.582 67.8317 113 59.5C121 40.0001 129.5 33.8118 123 39.4998C115 46.5 114 56.4999 92.9999 79.9997Z" fill="#7A7A7A"/>
</svg>
