<svg width="535" height="117" viewBox="0 0 535 117" fill="none" xmlns="http://www.w3.org/2000/svg">
<path d="M67.3031 44.2714C57.5775 54.5655 57.3456 71.2059 67 81.5C74.5 68.5 78.5 60 93.4519 51.6243C83.5838 60.4478 78 72 74 86C83.2625 90.638 94.9125 89.7087 102.572 81.6016C114.969 68.4795 117 29 117 29C117 29 79.7006 31.1493 67.3031 44.2714Z" fill="white"/>
<path d="M49.6969 34.9396C59.4225 45.01 59.4225 61.3144 49.7681 71.3848C44.5312 58.8429 35.1975 48.3668 23.5481 42.1327C33.4162 50.7645 40.3275 62.8268 42.75 76.5122C33.4875 81.0494 22.0875 79.3895 14.4281 71.4586C2.03063 58.6216 0 20 0 20C0 20 37.2994 22.1026 49.6969 34.9396Z" fill="white"/>
<path d="M139.047 39.0938V87.5703C139.047 88.8464 138.773 89.7969 138.227 90.4219C137.576 91.2031 136.651 91.8932 135.453 92.4922C134.281 93.0911 133.318 93.3906 132.562 93.3906C131.651 93.3906 131.195 92.8307 131.195 91.7109V43.2344C131.195 42.1406 131.469 41.2682 132.016 40.6172C132.693 39.8099 133.617 39.0807 134.789 38.4297C135.961 37.7526 136.924 37.4141 137.68 37.4141C138.591 37.4141 139.047 37.974 139.047 39.0938ZM160.062 91.7891L142.094 66.125C141.547 65.3698 141.273 64.6797 141.273 64.0547C141.273 63.1432 141.729 62.1016 142.641 60.9297L157.367 41.3984C158.591 39.7578 159.698 38.6901 160.688 38.1953C161.703 37.6745 163.188 37.4141 165.141 37.4141C166.573 37.4141 167.289 37.8047 167.289 38.5859C167.289 39.1589 166.911 39.9141 166.156 40.8516L150.57 60.5391C149.815 61.5026 149.438 62.2708 149.438 62.8438C149.438 63.3906 149.828 64.1849 150.609 65.2266L166.156 85.9688C166.703 86.724 166.977 87.4141 166.977 88.0391C166.977 88.7682 166.755 89.5104 166.312 90.2656C165.01 92.349 163.63 93.3906 162.172 93.3906C161.521 93.3906 160.818 92.8568 160.062 91.7891ZM183.188 55.2266C186.573 52.9349 189.828 51.7891 192.953 51.7891C197.198 51.7891 200.297 53.1042 202.25 55.7344C204.203 58.3385 205.18 62.5703 205.18 68.4297V88.3516C205.18 89.7578 204.529 90.9557 203.227 91.9453C201.951 92.9089 200.714 93.3906 199.516 93.3906C198.604 93.3906 198.148 92.8307 198.148 91.7109C198.174 78.9766 198.161 71.9974 198.109 70.7734C198.083 69.5234 197.979 68.026 197.797 66.2812C197.641 64.5104 197.38 63.2083 197.016 62.375C196.651 61.5417 196.143 60.6823 195.492 59.7969C194.867 58.8854 194.047 58.2604 193.031 57.9219C192.016 57.5833 190.792 57.4141 189.359 57.4141C186.182 57.4141 182.029 59.4062 176.898 63.3906C176.065 64.0417 175.414 64.3672 174.945 64.3672C174.424 64.3672 174.164 63.9766 174.164 63.1953V37.8828C174.164 36.5026 174.815 35.3438 176.117 34.4062C177.445 33.4688 178.682 33 179.828 33C180.74 33 181.195 33.5599 181.195 34.6797L181.039 54.2109C181.039 55.3307 181.299 55.8906 181.82 55.8906C182.133 55.8906 182.589 55.6693 183.188 55.2266ZM174.164 91.7109V70.7734C174.164 69.3151 174.516 68.1953 175.219 67.4141C175.896 66.6328 176.729 65.9167 177.719 65.2656C178.708 64.6146 179.464 64.2891 179.984 64.2891C180.792 64.2891 181.195 64.849 181.195 65.9688V88.5469C181.195 89.9531 180.531 91.112 179.203 92.0234C177.875 92.9349 176.651 93.3906 175.531 93.3906C174.62 93.3906 174.164 92.8307 174.164 91.7109ZM226.391 94.2109C224.203 94.2109 222.315 93.9245 220.727 93.3516C219.164 92.8047 217.888 91.8932 216.898 90.6172C215.909 89.3151 215.18 87.6354 214.711 85.5781C214.242 83.5208 214.008 80.9818 214.008 77.9609V56.75C214.008 56.0469 214.19 55.3958 214.555 54.7969C214.945 54.1719 215.414 53.638 215.961 53.1953C216.534 52.7526 217.146 52.4141 217.797 52.1797C218.474 51.9193 219.099 51.7891 219.672 51.7891C220.583 51.7891 221.039 52.349 221.039 53.4688V77.2578L221.195 80.2656C221.299 81.75 221.508 83.026 221.82 84.0938C222.133 85.1354 222.602 85.9948 223.227 86.6719C223.852 87.3229 224.633 87.8047 225.57 88.1172C226.534 88.4297 227.693 88.5859 229.047 88.5859C231.208 88.5859 233.174 88.0781 234.945 87.0625C235.44 86.776 235.766 86.6328 235.922 86.6328C236.156 86.6328 236.312 86.724 236.391 86.9062C236.495 87.0885 236.547 87.4792 236.547 88.0781C236.547 89.1719 236.169 90.1094 235.414 90.8906C234.659 91.6458 233.747 92.2708 232.68 92.7656C231.612 93.2604 230.492 93.625 229.32 93.8594C228.174 94.0938 227.198 94.2109 226.391 94.2109ZM245.57 53.4688V88.4688C245.57 89.875 244.919 91.0469 243.617 91.9844C242.341 92.9219 241.104 93.3906 239.906 93.3906C238.995 93.3906 238.539 92.8307 238.539 91.7109V56.7109C238.539 55.3568 239.19 54.1979 240.492 53.2344C241.794 52.2708 243.031 51.7891 244.203 51.7891C245.115 51.7891 245.57 52.349 245.57 53.4688ZM276.117 84.1328C276.117 81.3464 275.349 79.3542 273.812 78.1562C272.302 76.9583 270.115 76.2292 267.25 75.9688C264.724 75.7344 262.549 75.3047 260.727 74.6797C258.904 74.0547 257.484 73.2995 256.469 72.4141C255.453 71.5026 254.711 70.5391 254.242 69.5234C253.799 68.4818 253.578 67.362 253.578 66.1641C253.578 64.9401 254.203 63.8594 255.453 62.9219C256.703 61.9583 257.758 61.4766 258.617 61.4766C259.216 61.4766 259.62 61.8802 259.828 62.6875C260.036 63.5729 260.245 64.3151 260.453 64.9141C260.688 65.513 261 66.0469 261.391 66.5156C261.807 66.9583 262.211 67.3229 262.602 67.6094C263.018 67.8698 263.643 68.1172 264.477 68.3516C265.336 68.5599 266.143 68.7292 266.898 68.8594C267.68 68.9896 268.786 69.1458 270.219 69.3281C272.484 69.6146 274.411 70.1354 276 70.8906C277.589 71.6198 278.786 72.5312 279.594 73.625C280.401 74.7188 280.974 75.8516 281.312 77.0234C281.651 78.1953 281.82 79.5234 281.82 81.0078C281.82 82.6745 281.534 84.276 280.961 85.8125C280.414 87.3229 279.737 88.5599 278.93 89.5234C278.122 90.4609 277.302 91.2161 276.469 91.7891C275.635 92.3359 274.906 92.6094 274.281 92.6094C273.865 92.6094 273.656 92.4141 273.656 92.0234C273.656 91.8672 273.865 91.4766 274.281 90.8516C275.505 88.8724 276.117 86.6328 276.117 84.1328ZM278.695 54.0547C279.503 54.6797 279.906 55.2917 279.906 55.8906C279.906 56.5417 279.359 57.349 278.266 58.3125C277.198 59.25 276.221 59.7188 275.336 59.7188C275.076 59.7188 274.841 59.6927 274.633 59.6406C274.424 59.5625 274.112 59.4453 273.695 59.2891C273.305 59.1068 273.018 58.9896 272.836 58.9375C270.388 57.9219 268.188 57.4141 266.234 57.4141C262.562 57.4141 259.333 58.2604 256.547 59.9531C256.365 60.0573 256.104 60.2135 255.766 60.4219C255.453 60.6302 255.193 60.7995 254.984 60.9297C254.802 61.0339 254.646 61.0859 254.516 61.0859C254.151 61.0859 253.969 60.8646 253.969 60.4219C253.969 59.849 254.372 59.0547 255.18 58.0391C258.617 53.8724 263.448 51.7891 269.672 51.7891C271.312 51.7891 272.992 51.9844 274.711 52.375C276.43 52.7656 277.758 53.3255 278.695 54.0547ZM261 86.5938C261.859 87.1146 262.445 87.4661 262.758 87.6484C263.096 87.8307 263.656 88.0391 264.438 88.2734C265.245 88.4818 266.104 88.5859 267.016 88.5859C268.161 88.5859 269.294 88.4167 270.414 88.0781C271.534 87.7396 272.12 87.5703 272.172 87.5703C272.771 87.5703 273.07 87.8828 273.07 88.5078C273.07 88.9245 272.862 89.4453 272.445 90.0703C272.029 90.6693 271.443 91.2943 270.688 91.9453C269.932 92.5703 268.891 93.1042 267.562 93.5469C266.26 93.9896 264.828 94.2109 263.266 94.2109C261.078 94.2109 258.982 93.7031 256.977 92.6875C254.971 91.6719 253.969 90.6302 253.969 89.5625C253.969 88.7552 254.503 87.9349 255.57 87.1016C256.664 86.2422 257.706 85.8125 258.695 85.8125C259.346 85.8125 260.115 86.0729 261 86.5938ZM298.969 55.2266C302.354 52.9349 305.609 51.7891 308.734 51.7891C312.979 51.7891 316.078 53.1042 318.031 55.7344C319.984 58.3385 320.961 62.5703 320.961 68.4297V88.3516C320.961 89.7578 320.31 90.9557 319.008 91.9453C317.732 92.9089 316.495 93.3906 315.297 93.3906C314.385 93.3906 313.93 92.8307 313.93 91.7109C313.956 78.9766 313.943 71.9974 313.891 70.7734C313.865 69.5234 313.76 68.026 313.578 66.2812C313.422 64.5104 313.161 63.2083 312.797 62.375C312.432 61.5417 311.924 60.6823 311.273 59.7969C310.648 58.8854 309.828 58.2604 308.812 57.9219C307.797 57.5833 306.573 57.4141 305.141 57.4141C301.964 57.4141 297.81 59.4062 292.68 63.3906C291.846 64.0417 291.195 64.3672 290.727 64.3672C290.206 64.3672 289.945 63.9766 289.945 63.1953V37.8828C289.945 36.5026 290.596 35.3438 291.898 34.4062C293.227 33.4688 294.464 33 295.609 33C296.521 33 296.977 33.5599 296.977 34.6797L296.82 54.2109C296.82 55.3307 297.081 55.8906 297.602 55.8906C297.914 55.8906 298.37 55.6693 298.969 55.2266ZM289.945 91.7109V70.7734C289.945 69.3151 290.297 68.1953 291 67.4141C291.677 66.6328 292.51 65.9167 293.5 65.2656C294.49 64.6146 295.245 64.2891 295.766 64.2891C296.573 64.2891 296.977 64.849 296.977 65.9688V88.5469C296.977 89.9531 296.312 91.112 294.984 92.0234C293.656 92.9349 292.432 93.3906 291.312 93.3906C290.401 93.3906 289.945 92.8307 289.945 91.7109ZM337.211 53.4688V88.3516C337.211 89.3411 336.977 90.1484 336.508 90.7734C335.831 91.5547 335.023 92.1927 334.086 92.6875C333.174 93.1562 332.328 93.3906 331.547 93.3906C330.635 93.3906 330.18 92.8307 330.18 91.7109V56.8281C330.18 55.8385 330.414 55.0443 330.883 54.4453C331.56 53.6641 332.354 53.026 333.266 52.5312C334.203 52.0365 335.062 51.7891 335.844 51.7891C336.755 51.7891 337.211 52.349 337.211 53.4688ZM337.211 33.1172V38.7812C337.211 39.7708 336.977 40.5781 336.508 41.2031C335.831 41.9844 335.023 42.6224 334.086 43.1172C333.174 43.5859 332.328 43.8203 331.547 43.8203C330.635 43.8203 330.18 43.2604 330.18 42.1406V36.4766C330.18 35.4609 330.414 34.6667 330.883 34.0938C331.56 33.3125 332.354 32.6745 333.266 32.1797C334.203 31.6849 335.062 31.4375 335.844 31.4375C336.755 31.4375 337.211 31.9974 337.211 33.1172ZM362.992 62.0234C365.049 62.4141 366.885 62.8958 368.5 63.4688C370.141 64.0417 371.521 64.6536 372.641 65.3047C373.76 65.9297 374.724 66.6589 375.531 67.4922C376.339 68.3255 376.964 69.1328 377.406 69.9141C377.875 70.6953 378.24 71.5938 378.5 72.6094C378.76 73.625 378.93 74.5625 379.008 75.4219C379.086 76.2552 379.125 77.2318 379.125 78.3516C379.125 80.4349 378.734 82.4271 377.953 84.3281C377.172 86.2292 376.195 87.8047 375.023 89.0547C373.878 90.2786 372.68 91.2552 371.43 91.9844C370.18 92.7135 369.047 93.0781 368.031 93.0781C367.484 93.0781 367.211 92.8177 367.211 92.2969C367.211 91.9583 367.419 91.5807 367.836 91.1641C369.164 89.888 370.141 88.3385 370.766 86.5156C371.391 84.6927 371.703 83.0391 371.703 81.5547C371.703 80.6693 371.69 79.9792 371.664 79.4844C371.638 78.9896 371.547 78.3125 371.391 77.4531C371.26 76.5938 371.052 75.9036 370.766 75.3828C370.505 74.8359 370.102 74.224 369.555 73.5469C369.008 72.8438 368.344 72.2708 367.562 71.8281C366.781 71.3594 365.779 70.9297 364.555 70.5391C363.357 70.1224 361.977 69.7969 360.414 69.5625C358.435 69.276 356.651 68.8984 355.062 68.4297C353.5 67.9349 352.198 67.4141 351.156 66.8672C350.141 66.3203 349.255 65.6823 348.5 64.9531C347.771 64.224 347.211 63.5469 346.82 62.9219C346.43 62.2708 346.13 61.5417 345.922 60.7344C345.714 59.9271 345.583 59.263 345.531 58.7422C345.479 58.1953 345.453 57.5833 345.453 56.9062C345.453 56.125 345.57 55.3828 345.805 54.6797C346.169 53.5599 347.003 52.4922 348.305 51.4766C349.607 50.4609 350.74 49.9531 351.703 49.9531C352.172 49.9531 352.523 50.0573 352.758 50.2656C353.018 50.4479 353.148 50.8516 353.148 51.4766C353.148 53.4557 353.266 55.0182 353.5 56.1641C353.76 57.3099 354.294 58.2734 355.102 59.0547C355.909 59.8359 356.885 60.4219 358.031 60.8125C359.177 61.2031 360.831 61.6068 362.992 62.0234ZM356.625 94.2109C354.646 94.2109 352.901 93.9505 351.391 93.4297C349.906 92.9349 348.279 91.8802 346.508 90.2656C345.648 89.4844 345.219 88.6641 345.219 87.8047C345.219 87.1016 345.505 86.4635 346.078 85.8906C347.797 84.1719 349.346 83.3125 350.727 83.3125C351.612 83.3125 352.602 83.7682 353.695 84.6797C355.206 85.9818 356.456 86.8281 357.445 87.2188C358.461 87.6094 359.646 87.8047 361 87.8047C362.146 87.8047 363.201 87.5833 364.164 87.1406C365.154 86.6979 365.74 86.4766 365.922 86.4766C366.573 86.4766 366.898 86.8932 366.898 87.7266C366.898 88.1432 366.729 88.6771 366.391 89.3281C366.052 89.9792 365.518 90.6953 364.789 91.4766C364.086 92.2318 363.005 92.8698 361.547 93.3906C360.115 93.9375 358.474 94.2109 356.625 94.2109ZM376.078 41.6328C376.078 42.6484 375.401 43.6641 374.047 44.6797C372.719 45.6953 371.56 46.2031 370.57 46.2031C369.945 46.2031 369.099 45.9688 368.031 45.5C366.964 45.0312 365.753 44.5625 364.398 44.0938C363.07 43.625 361.768 43.3906 360.492 43.3906C358.305 43.3906 356.26 43.8073 354.359 44.6406C352.484 45.4479 350.479 46.737 348.344 48.5078C346.938 49.6797 346.052 50.2656 345.688 50.2656C345.115 50.2656 344.828 49.9531 344.828 49.3281C344.828 48.9115 345.076 48.2734 345.57 47.4141C346.065 46.5547 346.534 45.8516 346.977 45.3047C351.56 39.7578 357.641 36.9844 365.219 36.9844C366.651 36.9844 368.188 37.1667 369.828 37.5312C371.469 37.8698 372.914 38.4167 374.164 39.1719C375.44 39.901 376.078 40.7214 376.078 41.6328ZM395.844 55.2266C399.229 52.9349 402.484 51.7891 405.609 51.7891C409.854 51.7891 412.953 53.1042 414.906 55.7344C416.859 58.3385 417.836 62.5703 417.836 68.4297V88.3516C417.836 89.7578 417.185 90.9557 415.883 91.9453C414.607 92.9089 413.37 93.3906 412.172 93.3906C411.26 93.3906 410.805 92.8307 410.805 91.7109C410.831 78.9766 410.818 71.9974 410.766 70.7734C410.74 69.5234 410.635 68.026 410.453 66.2812C410.297 64.5104 410.036 63.2083 409.672 62.375C409.307 61.5417 408.799 60.6823 408.148 59.7969C407.523 58.8854 406.703 58.2604 405.688 57.9219C404.672 57.5833 403.448 57.4141 402.016 57.4141C398.839 57.4141 394.685 59.4062 389.555 63.3906C388.721 64.0417 388.07 64.3672 387.602 64.3672C387.081 64.3672 386.82 63.9766 386.82 63.1953V37.8828C386.82 36.5026 387.471 35.3438 388.773 34.4062C390.102 33.4688 391.339 33 392.484 33C393.396 33 393.852 33.5599 393.852 34.6797L393.695 54.2109C393.695 55.3307 393.956 55.8906 394.477 55.8906C394.789 55.8906 395.245 55.6693 395.844 55.2266ZM386.82 91.7109V70.7734C386.82 69.3151 387.172 68.1953 387.875 67.4141C388.552 66.6328 389.385 65.9167 390.375 65.2656C391.365 64.6146 392.12 64.2891 392.641 64.2891C393.448 64.2891 393.852 64.849 393.852 65.9688V88.5469C393.852 89.9531 393.188 91.112 391.859 92.0234C390.531 92.9349 389.307 93.3906 388.188 93.3906C387.276 93.3906 386.82 92.8307 386.82 91.7109ZM442.719 51.7891C448.656 51.7891 453.018 53.5469 455.805 57.0625C458.617 60.5521 460.023 65.7083 460.023 72.5312C460.023 74.6406 459.75 76.9062 459.203 79.3281C458.682 81.724 457.966 83.8594 457.055 85.7344C456.065 87.7135 454.854 89.3932 453.422 90.7734C451.99 92.1536 450.831 92.8438 449.945 92.8438C449.398 92.8438 449.125 92.5964 449.125 92.1016C449.125 91.9453 449.216 91.737 449.398 91.4766C449.581 91.2161 449.828 90.8255 450.141 90.3047C450.453 89.7578 450.727 89.1328 450.961 88.4297C452.029 85.513 452.562 81.3854 452.562 76.0469C452.562 73.1042 452.354 70.5521 451.938 68.3906C451.547 66.2031 450.883 64.263 449.945 62.5703C449.034 60.8776 447.758 59.6016 446.117 58.7422C444.477 57.8568 442.471 57.4141 440.102 57.4141C436.82 57.4141 433.435 58.612 429.945 61.0078C429.815 61.112 429.62 61.2552 429.359 61.4375C429.099 61.5938 428.891 61.724 428.734 61.8281C428.604 61.9323 428.461 62.0234 428.305 62.1016C428.148 62.1797 428.018 62.2188 427.914 62.2188C427.549 62.2188 427.367 61.9974 427.367 61.5547C427.367 61.2682 427.51 60.8516 427.797 60.3047C428.109 59.7578 428.37 59.3542 428.578 59.0938C432.38 54.224 437.094 51.7891 442.719 51.7891ZM433.188 71.4375C433.188 73.2604 433.227 74.8229 433.305 76.125C433.383 77.4271 433.526 78.7812 433.734 80.1875C433.969 81.5938 434.307 82.7656 434.75 83.7031C435.219 84.6406 435.792 85.5 436.469 86.2812C437.172 87.0625 438.057 87.6484 439.125 88.0391C440.193 88.4036 441.443 88.5859 442.875 88.5859C444.099 88.5859 445.167 88.4167 446.078 88.0781C447.016 87.7396 447.549 87.5703 447.68 87.5703C448.227 87.5703 448.5 87.8568 448.5 88.4297C448.5 89.6016 447.654 90.8646 445.961 92.2188C444.294 93.5469 442.237 94.2109 439.789 94.2109C437.523 94.2109 435.544 93.8333 433.852 93.0781C432.185 92.3229 430.844 91.3333 429.828 90.1094C428.812 88.8854 427.992 87.349 427.367 85.5C426.768 83.651 426.365 81.7891 426.156 79.9141C425.948 78.0391 425.844 75.9167 425.844 73.5469C425.844 72.2188 425.974 70.8255 426.234 69.3672C426.495 67.8828 426.846 66.75 427.289 65.9688C427.836 65.0312 428.708 64.1719 429.906 63.3906C431.13 62.6094 432.172 62.2188 433.031 62.2188C433.682 62.2188 434.008 62.6094 434.008 63.3906C434.008 63.5208 433.865 64.5234 433.578 66.3984C433.318 68.2734 433.188 69.9531 433.188 71.4375ZM474.867 68.1172C474.867 68.8464 475.089 69.3151 475.531 69.5234C476 69.7057 476.677 69.7969 477.562 69.7969C479.828 69.7969 481.768 69.6016 483.383 69.2109C484.997 68.8203 486.234 68.2734 487.094 67.5703C487.953 66.8672 488.565 66.125 488.93 65.3438C489.32 64.5625 489.516 63.7031 489.516 62.7656C489.516 61.151 488.956 59.862 487.836 58.8984C486.716 57.9089 484.919 57.4141 482.445 57.4141C478.565 57.4141 474.919 58.638 471.508 61.0859C470.492 61.8411 469.854 62.2188 469.594 62.2188C469.151 62.2188 468.93 61.9714 468.93 61.4766C468.93 60.8255 469.307 60.0312 470.062 59.0938C471.469 57.2969 473.07 55.8255 474.867 54.6797C476.664 53.5339 478.305 52.7656 479.789 52.375C481.273 51.9844 482.745 51.7891 484.203 51.7891C486.078 51.7891 487.771 51.9844 489.281 52.375C490.792 52.7656 492.133 53.3776 493.305 54.2109C494.477 55.0182 495.388 56.138 496.039 57.5703C496.69 58.9766 497.016 60.6302 497.016 62.5312C497.016 66.5938 495.076 69.7318 491.195 71.9453C487.341 74.1328 482.068 75.2266 475.375 75.2266C473.5 75.2266 471.378 75.1224 469.008 74.9141C467.836 74.8359 467.25 74.263 467.25 73.1953C467.25 70.3047 467.667 68.1432 468.5 66.7109C469.333 65.2526 470.414 64.1328 471.742 63.3516C473.044 62.5964 474.034 62.2188 474.711 62.2188C475.336 62.2188 475.648 62.6094 475.648 63.3906C475.648 63.7031 475.518 64.4714 475.258 65.6953C474.997 66.8932 474.867 67.7005 474.867 68.1172ZM467.562 79.0156C467.562 77.6615 468.188 76.9844 469.438 76.9844H472.797C473.474 76.9844 473.943 77.1146 474.203 77.375C474.49 77.6354 474.711 78.2083 474.867 79.0938C475.883 85.4219 479.346 88.5859 485.258 88.5859C486.742 88.5859 488.135 88.4036 489.438 88.0391C490.74 87.6745 491.742 87.2708 492.445 86.8281C493.174 86.3854 493.839 85.9818 494.438 85.6172C495.062 85.2526 495.518 85.0703 495.805 85.0703C496.404 85.0703 496.703 85.3958 496.703 86.0469C496.703 86.5938 496.404 87.2969 495.805 88.1562C495.206 89.0156 494.346 89.9141 493.227 90.8516C492.133 91.763 490.609 92.5443 488.656 93.1953C486.729 93.8724 484.633 94.2109 482.367 94.2109C477.68 94.2109 474.034 92.8047 471.43 89.9922C468.852 87.1536 467.562 83.4948 467.562 79.0156ZM525.805 84.1328C525.805 81.3464 525.036 79.3542 523.5 78.1562C521.99 76.9583 519.802 76.2292 516.938 75.9688C514.411 75.7344 512.237 75.3047 510.414 74.6797C508.591 74.0547 507.172 73.2995 506.156 72.4141C505.141 71.5026 504.398 70.5391 503.93 69.5234C503.487 68.4818 503.266 67.362 503.266 66.1641C503.266 64.9401 503.891 63.8594 505.141 62.9219C506.391 61.9583 507.445 61.4766 508.305 61.4766C508.904 61.4766 509.307 61.8802 509.516 62.6875C509.724 63.5729 509.932 64.3151 510.141 64.9141C510.375 65.513 510.688 66.0469 511.078 66.5156C511.495 66.9583 511.898 67.3229 512.289 67.6094C512.706 67.8698 513.331 68.1172 514.164 68.3516C515.023 68.5599 515.831 68.7292 516.586 68.8594C517.367 68.9896 518.474 69.1458 519.906 69.3281C522.172 69.6146 524.099 70.1354 525.688 70.8906C527.276 71.6198 528.474 72.5312 529.281 73.625C530.089 74.7188 530.661 75.8516 531 77.0234C531.339 78.1953 531.508 79.5234 531.508 81.0078C531.508 82.6745 531.221 84.276 530.648 85.8125C530.102 87.3229 529.424 88.5599 528.617 89.5234C527.81 90.4609 526.99 91.2161 526.156 91.7891C525.323 92.3359 524.594 92.6094 523.969 92.6094C523.552 92.6094 523.344 92.4141 523.344 92.0234C523.344 91.8672 523.552 91.4766 523.969 90.8516C525.193 88.8724 525.805 86.6328 525.805 84.1328ZM528.383 54.0547C529.19 54.6797 529.594 55.2917 529.594 55.8906C529.594 56.5417 529.047 57.349 527.953 58.3125C526.885 59.25 525.909 59.7188 525.023 59.7188C524.763 59.7188 524.529 59.6927 524.32 59.6406C524.112 59.5625 523.799 59.4453 523.383 59.2891C522.992 59.1068 522.706 58.9896 522.523 58.9375C520.076 57.9219 517.875 57.4141 515.922 57.4141C512.25 57.4141 509.021 58.2604 506.234 59.9531C506.052 60.0573 505.792 60.2135 505.453 60.4219C505.141 60.6302 504.88 60.7995 504.672 60.9297C504.49 61.0339 504.333 61.0859 504.203 61.0859C503.839 61.0859 503.656 60.8646 503.656 60.4219C503.656 59.849 504.06 59.0547 504.867 58.0391C508.305 53.8724 513.135 51.7891 519.359 51.7891C521 51.7891 522.68 51.9844 524.398 52.375C526.117 52.7656 527.445 53.3255 528.383 54.0547ZM510.688 86.5938C511.547 87.1146 512.133 87.4661 512.445 87.6484C512.784 87.8307 513.344 88.0391 514.125 88.2734C514.932 88.4818 515.792 88.5859 516.703 88.5859C517.849 88.5859 518.982 88.4167 520.102 88.0781C521.221 87.7396 521.807 87.5703 521.859 87.5703C522.458 87.5703 522.758 87.8828 522.758 88.5078C522.758 88.9245 522.549 89.4453 522.133 90.0703C521.716 90.6693 521.13 91.2943 520.375 91.9453C519.62 92.5703 518.578 93.1042 517.25 93.5469C515.948 93.9896 514.516 94.2109 512.953 94.2109C510.766 94.2109 508.669 93.7031 506.664 92.6875C504.659 91.6719 503.656 90.6302 503.656 89.5625C503.656 88.7552 504.19 87.9349 505.258 87.1016C506.352 86.2422 507.393 85.8125 508.383 85.8125C509.034 85.8125 509.802 86.0729 510.688 86.5938Z" fill="white"/>
<path d="M61 89C61 91.5 57.5 94 55.5 92.5C53.0147 92.5 44.9998 74.4999 43.4998 70.4999C40.5774 61 30.5 46.5 36 53.5C38.6001 56.1262 46.5 71 61 89Z" fill="#7A7A7A"/>
<path d="M53.9999 99.9997C53.9999 103.037 57.5147 103 59.9999 103C62.4852 103 70.5819 87.8317 74.0001 79.5C82.0003 60.0001 90.5001 53.8118 83.9999 59.4998C76 66.5 74.9999 76.4999 53.9999 99.9997Z" fill="#7A7A7A"/>
</svg>
